# Blender 4.2.1 LTS
# www.blender.org
mtllib sphere8.mtl
usemtl Material
o Sphere
v -0.241845 0.939693 0.241845
v -0.454519 0.766044 0.454519
v -0.612372 0.500000 0.612372
v -0.696364 0.173648 0.696364
v -0.696364 -0.173648 0.696364
v -0.612372 -0.500000 0.612372
v -0.454519 -0.766044 0.454519
v -0.241845 -0.939693 0.241845
v -0.342020 0.939693 0.000000
v -0.642788 0.766044 0.000000
v -0.866025 0.500000 0.000000
v -0.984808 0.173648 0.000000
v -0.984808 -0.173648 0.000000
v -0.866025 -0.500000 0.000000
v -0.642788 -0.766044 0.000000
v -0.342020 -0.939693 0.000000
v -0.241845 0.939693 -0.241845
v -0.454519 0.766044 -0.454519
v -0.612372 0.500000 -0.612372
v -0.696364 0.173648 -0.696364
v -0.696364 -0.173648 -0.696364
v -0.612372 -0.500000 -0.612372
v -0.454519 -0.766044 -0.454519
v -0.241845 -0.939693 -0.241845
v 0.000000 0.939693 -0.342020
v 0.000000 0.766044 -0.642788
v 0.000000 0.500000 -0.866025
v 0.000000 0.173648 -0.984808
v 0.000000 -0.173648 -0.984808
v 0.000000 -0.500000 -0.866025
v 0.000000 -0.766044 -0.642788
v 0.000000 -0.939693 -0.342020
v 0.241845 0.939693 -0.241845
v 0.454519 0.766044 -0.454519
v 0.612372 0.500000 -0.612372
v 0.696364 0.173648 -0.696364
v 0.696364 -0.173648 -0.696364
v 0.612372 -0.500000 -0.612372
v 0.454519 -0.766044 -0.454519
v 0.241845 -0.939693 -0.241845
v 0.000000 -1.000000 0.000000
v 0.000000 1.000000 0.000000
v 0.342020 0.939693 0.000000
v 0.642788 0.766044 0.000000
v 0.866025 0.500000 0.000000
v 0.984808 0.173648 0.000000
v 0.984808 -0.173648 0.000000
v 0.866025 -0.500000 0.000000
v 0.642788 -0.766044 0.000000
v 0.342020 -0.939693 0.000000
v 0.241845 0.939693 0.241845
v 0.454519 0.766044 0.454519
v 0.612372 0.500000 0.612372
v 0.696364 0.173648 0.696364
v 0.696364 -0.173648 0.696364
v 0.612372 -0.500000 0.612372
v 0.454519 -0.766044 0.454519
v 0.241845 -0.939693 0.241845
v 0.000000 0.939693 0.342020
v 0.000000 0.766044 0.642788
v 0.000000 0.500000 0.866025
v 0.000000 0.173648 0.984808
v 0.000000 -0.173648 0.984808
v 0.000000 -0.500000 0.866025
v 0.000000 -0.766044 0.642788
v 0.000000 -0.939693 0.342020
vn -0.2028 0.8480 0.4896
vn -0.0717 -0.9823 0.1732
vn -0.3627 -0.3187 0.8757
vn -0.3024 0.6127 0.7302
vn -0.3024 -0.6127 0.7302
vn -0.3627 0.3187 0.8757
vn -0.0717 0.9823 0.1732
vn -0.2028 -0.8480 0.4896
vn -0.3827 -0.0000 0.9239
vn -0.7302 0.6127 0.3024
vn -0.7302 -0.6127 0.3024
vn -0.8757 0.3187 0.3627
vn -0.1732 0.9823 0.0717
vn -0.4896 -0.8480 0.2028
vn -0.9239 -0.0000 0.3827
vn -0.4896 0.8480 0.2028
vn -0.1732 -0.9823 0.0717
vn -0.8757 -0.3187 0.3627
vn -0.1732 0.9823 -0.0717
vn -0.4896 -0.8480 -0.2028
vn -0.9239 -0.0000 -0.3827
vn -0.4896 0.8480 -0.2028
vn -0.1732 -0.9823 -0.0717
vn -0.8757 -0.3187 -0.3627
vn -0.7302 0.6127 -0.3024
vn -0.7302 -0.6127 -0.3024
vn -0.8757 0.3187 -0.3627
vn -0.3627 -0.3187 -0.8757
vn -0.3024 0.6127 -0.7302
vn -0.3024 -0.6127 -0.7302
vn -0.3627 0.3187 -0.8757
vn -0.0717 0.9823 -0.1732
vn -0.2028 -0.8480 -0.4896
vn -0.3827 -0.0000 -0.9239
vn -0.2028 0.8480 -0.4896
vn -0.0717 -0.9823 -0.1732
vn 0.3627 0.3187 -0.8757
vn 0.0717 0.9823 -0.1732
vn 0.2028 -0.8480 -0.4896
vn 0.3827 -0.0000 -0.9239
vn 0.2028 0.8480 -0.4896
vn 0.0717 -0.9823 -0.1732
vn 0.3627 -0.3187 -0.8757
vn 0.3024 0.6127 -0.7302
vn 0.3024 -0.6127 -0.7302
vn 0.4896 0.8480 -0.2028
vn 0.1732 -0.9823 -0.0717
vn 0.8757 -0.3187 -0.3627
vn 0.7302 0.6127 -0.3024
vn 0.7302 -0.6127 -0.3024
vn 0.8757 0.3187 -0.3627
vn 0.1732 0.9823 -0.0717
vn 0.4896 -0.8480 -0.2028
vn 0.9239 -0.0000 -0.3827
vn 0.7302 -0.6127 0.3024
vn 0.8757 0.3187 0.3627
vn 0.1732 0.9823 0.0717
vn 0.4896 -0.8480 0.2028
vn 0.9239 -0.0000 0.3827
vn 0.4896 0.8480 0.2028
vn 0.1732 -0.9823 0.0717
vn 0.8757 -0.3187 0.3627
vn 0.7302 0.6127 0.3024
vn 0.2028 -0.8480 0.4896
vn 0.3827 -0.0000 0.9239
vn 0.2028 0.8480 0.4896
vn 0.0717 -0.9823 0.1732
vn 0.3627 -0.3187 0.8757
vn 0.3024 0.6127 0.7302
vn 0.3024 -0.6127 0.7302
vn 0.3627 0.3187 0.8757
vn 0.0717 0.9823 0.1732
vt 0.750000 0.888889
vt 0.625000 0.777778
vt 0.750000 0.777778
vt 0.687500 0.000000
vt 0.750000 0.111111
vt 0.625000 0.111111
vt 0.750000 0.444444
vt 0.625000 0.333333
vt 0.750000 0.333333
vt 0.625000 0.666667
vt 0.750000 0.666667
vt 0.625000 0.222222
vt 0.750000 0.222222
vt 0.625000 0.555556
vt 0.750000 0.555556
vt 0.687500 1.000000
vt 0.625000 0.888889
vt 0.625000 0.444444
vt 0.500000 0.666667
vt 0.500000 0.222222
vt 0.500000 0.555556
vt 0.562500 1.000000
vt 0.500000 0.888889
vt 0.500000 0.111111
vt 0.500000 0.444444
vt 0.500000 0.777778
vt 0.562500 0.000000
vt 0.500000 0.333333
vt 0.437500 1.000000
vt 0.375000 0.888889
vt 0.375000 0.111111
vt 0.375000 0.444444
vt 0.375000 0.777778
vt 0.437500 0.000000
vt 0.375000 0.333333
vt 0.375000 0.666667
vt 0.375000 0.222222
vt 0.375000 0.555556
vt 0.250000 0.333333
vt 0.250000 0.666667
vt 0.250000 0.222222
vt 0.250000 0.555556
vt 0.312500 1.000000
vt 0.250000 0.888889
vt 0.250000 0.111111
vt 0.250000 0.444444
vt 0.250000 0.777778
vt 0.312500 0.000000
vt 0.125000 0.555556
vt 0.187500 1.000000
vt 0.125000 0.888889
vt 0.125000 0.111111
vt 0.125000 0.444444
vt 0.125000 0.777778
vt 0.187500 0.000000
vt 0.125000 0.333333
vt 0.125000 0.666667
vt 0.125000 0.222222
vt 0.000000 0.777778
vt 0.062500 0.000000
vt 0.000000 0.111111
vt 0.000000 0.333333
vt 0.000000 0.666667
vt 0.000000 0.222222
vt 0.000000 0.555556
vt 0.062500 1.000000
vt 0.000000 0.888889
vt 0.000000 0.444444
vt 1.000000 0.333333
vt 0.875000 0.222222
vt 1.000000 0.222222
vt 1.000000 0.666667
vt 0.875000 0.555556
vt 1.000000 0.555556
vt 1.000000 0.888889
vt 0.937500 1.000000
vt 0.875000 0.888889
vt 0.875000 0.111111
vt 1.000000 0.111111
vt 0.875000 0.444444
vt 1.000000 0.444444
vt 0.875000 0.777778
vt 1.000000 0.777778
vt 0.937500 0.000000
vt 0.875000 0.333333
vt 0.875000 0.666667
vt 0.812500 0.000000
vt 0.812500 1.000000
s 0
f 59/1/1 2/2/1 60/3/1
f 41/4/2 66/5/2 8/6/2
f 63/7/3 6/8/3 64/9/3
f 60/3/4 3/10/4 61/11/4
f 64/9/5 7/12/5 65/13/5
f 61/11/6 4/14/6 62/15/6
f 59/1/7 42/16/7 1/17/7
f 65/13/8 8/6/8 66/5/8
f 62/15/9 5/18/9 63/7/9
f 2/2/10 11/19/10 3/10/10
f 6/8/11 15/20/11 7/12/11
f 4/14/12 11/19/12 12/21/12
f 1/17/13 42/22/13 9/23/13
f 7/12/14 16/24/14 8/6/14
f 4/14/15 13/25/15 5/18/15
f 1/17/16 10/26/16 2/2/16
f 41/27/17 8/6/17 16/24/17
f 5/18/18 14/28/18 6/8/18
f 9/23/19 42/29/19 17/30/19
f 15/20/20 24/31/20 16/24/20
f 12/21/21 21/32/21 13/25/21
f 9/23/22 18/33/22 10/26/22
f 41/34/23 16/24/23 24/31/23
f 13/25/24 22/35/24 14/28/24
f 10/26/25 19/36/25 11/19/25
f 14/28/26 23/37/26 15/20/26
f 11/19/27 20/38/27 12/21/27
f 21/32/28 30/39/28 22/35/28
f 18/33/29 27/40/29 19/36/29
f 22/35/30 31/41/30 23/37/30
f 20/38/31 27/40/31 28/42/31
f 17/30/32 42/43/32 25/44/32
f 23/37/33 32/45/33 24/31/33
f 20/38/34 29/46/34 21/32/34
f 17/30/35 26/47/35 18/33/35
f 41/48/36 24/31/36 32/45/36
f 27/40/37 36/49/37 28/42/37
f 25/44/38 42/50/38 33/51/38
f 31/41/39 40/52/39 32/45/39
f 28/42/40 37/53/40 29/46/40
f 25/44/41 34/54/41 26/47/41
f 41/55/42 32/45/42 40/52/42
f 29/46/43 38/56/43 30/39/43
f 26/47/44 35/57/44 27/40/44
f 30/39/45 39/58/45 31/41/45
f 33/51/46 44/59/46 34/54/46
f 41/60/47 40/52/47 50/61/47
f 37/53/48 48/62/48 38/56/48
f 34/54/49 45/63/49 35/57/49
f 38/56/50 49/64/50 39/58/50
f 36/49/51 45/63/51 46/65/51
f 33/51/52 42/66/52 43/67/52
f 39/58/53 50/61/53 40/52/53
f 36/49/54 47/68/54 37/53/54
f 48/69/55 57/70/55 49/71/55
f 45/72/56 54/73/56 46/74/56
f 43/75/57 42/76/57 51/77/57
f 49/71/58 58/78/58 50/79/58
f 46/74/59 55/80/59 47/81/59
f 43/75/60 52/82/60 44/83/60
f 41/84/61 50/79/61 58/78/61
f 47/81/62 56/85/62 48/69/62
f 44/83/63 53/86/63 45/72/63
f 57/70/64 66/5/64 58/78/64
f 54/73/65 63/7/65 55/80/65
f 51/77/66 60/3/66 52/82/66
f 41/87/67 58/78/67 66/5/67
f 55/80/68 64/9/68 56/85/68
f 52/82/69 61/11/69 53/86/69
f 56/85/70 65/13/70 57/70/70
f 54/73/71 61/11/71 62/15/71
f 51/77/72 42/88/72 59/1/72
f 59/1/1 1/17/1 2/2/1
f 63/7/3 5/18/3 6/8/3
f 60/3/4 2/2/4 3/10/4
f 64/9/5 6/8/5 7/12/5
f 61/11/6 3/10/6 4/14/6
f 65/13/8 7/12/8 8/6/8
f 62/15/9 4/14/9 5/18/9
f 2/2/10 10/26/10 11/19/10
f 6/8/11 14/28/11 15/20/11
f 4/14/12 3/10/12 11/19/12
f 7/12/14 15/20/14 16/24/14
f 4/14/15 12/21/15 13/25/15
f 1/17/16 9/23/16 10/26/16
f 5/18/18 13/25/18 14/28/18
f 15/20/20 23/37/20 24/31/20
f 12/21/21 20/38/21 21/32/21
f 9/23/22 17/30/22 18/33/22
f 13/25/24 21/32/24 22/35/24
f 10/26/25 18/33/25 19/36/25
f 14/28/26 22/35/26 23/37/26
f 11/19/27 19/36/27 20/38/27
f 21/32/28 29/46/28 30/39/28
f 18/33/29 26/47/29 27/40/29
f 22/35/30 30/39/30 31/41/30
f 20/38/31 19/36/31 27/40/31
f 23/37/33 31/41/33 32/45/33
f 20/38/34 28/42/34 29/46/34
f 17/30/35 25/44/35 26/47/35
f 27/40/37 35/57/37 36/49/37
f 31/41/39 39/58/39 40/52/39
f 28/42/40 36/49/40 37/53/40
f 25/44/41 33/51/41 34/54/41
f 29/46/43 37/53/43 38/56/43
f 26/47/44 34/54/44 35/57/44
f 30/39/45 38/56/45 39/58/45
f 33/51/46 43/67/46 44/59/46
f 37/53/48 47/68/48 48/62/48
f 34/54/49 44/59/49 45/63/49
f 38/56/50 48/62/50 49/64/50
f 36/49/51 35/57/51 45/63/51
f 39/58/53 49/64/53 50/61/53
f 36/49/54 46/65/54 47/68/54
f 48/69/55 56/85/55 57/70/55
f 45/72/56 53/86/56 54/73/56
f 49/71/58 57/70/58 58/78/58
f 46/74/59 54/73/59 55/80/59
f 43/75/60 51/77/60 52/82/60
f 47/81/62 55/80/62 56/85/62
f 44/83/63 52/82/63 53/86/63
f 57/70/64 65/13/64 66/5/64
f 54/73/65 62/15/65 63/7/65
f 51/77/66 59/1/66 60/3/66
f 55/80/68 63/7/68 64/9/68
f 52/82/69 60/3/69 61/11/69
f 56/85/70 64/9/70 65/13/70
f 54/73/71 53/86/71 61/11/71
