# Blender v2.57 (sub 0) OBJ File: ''
# www.blender.org
#mtllib box.mtl
o Cube
v 1.000000 -1.000000 -1.000000
v 1.000000 -1.000000 1.000000
v -1.000000 -1.000000 1.000000
v -1.000000 -1.000000 -1.000000
v 1.000000 1.000000 -1.000000
v 0.999999 1.000000 1.000001
v -1.000000 1.000000 1.000000
v -1.000000 1.000000 -1.000000
vt 0.750000 0.500000
vt 0.500000 0.500000
vt 0.500000 0.250000
vt 0.750000 0.250000
vt 0.000000 0.500000
vt 0.000000 0.250000
vt 0.250000 0.250000
vt 0.250000 0.500000
vt 0.749999 0.750001
vt 0.499999 0.750000
vt 0.500000 0.000000
vt 0.750000 0.000000
vt 1.000000 0.500000
vt 1.000000 0.250000
vn -0.000000 -1.000000 0.000000
vn 0.000000 1.000000 -0.000000
vn 1.000000 0.000000 0.000000
vn -0.000000 -0.000000 1.000000
vn -1.000000 -0.000000 -0.000000
vn 0.000000 0.000000 -1.000000
#usemtl Material_test.png
s off
f 1/1/1 2/2/1 3/3/1
f 1/1/1 3/3/1 4/4/1
f 5/5/2 8/6/2 7/7/2
f 5/5/2 7/7/2 6/8/2
f 1/1/3 5/9/3 6/10/3
f 1/1/3 6/10/3 2/2/3
f 2/2/4 6/8/4 7/7/4
f 2/2/4 7/7/4 3/3/4
f 3/3/5 7/11/5 8/12/5
f 3/3/5 8/12/5 4/4/5
f 5/13/6 1/1/6 4/4/6
f 5/13/6 4/4/6 8/14/6
